<mxfile host="app.diagrams.net" modified="2024-06-26T23:30:43.145Z" agent="Mozilla/5.0 (Macintosh; Intel Mac OS X 10_15_7) AppleWebKit/537.36 (KHTML, like Gecko) Chrome/126.0.0.0 Safari/537.36" version="24.6.3" etag="pkCfcR_xhY0RHFxoc6pW" type="github">
  <diagram name="Page-1" id="j9Ac1t27wdLTTsC0bg2a">
    <mxGraphModel>
      <root>
        <mxCell id="0" />
        <mxCell id="1" parent="0" />
      </root>
    </mxGraphModel>
  </diagram>
</mxfile>
